<?xml version="1.0" encoding="UTF-8" standalone="no"?>
<!DOCTYPE svg PUBLIC "-//W3C//DTD SVG 1.1//EN" "http://www.w3.org/Graphics/SVG/1.1/DTD/svg11.dtd">
<svg width="100%" height="100%" viewBox="0 0 357 301" version="1.1" xmlns="http://www.w3.org/2000/svg" xmlns:xlink="http://www.w3.org/1999/xlink" xml:space="preserve" xmlns:serif="http://www.serif.com/" style="fill-rule:evenodd;clip-rule:evenodd;stroke-linejoin:round;stroke-miterlimit:2;">
    <g transform="matrix(1,0,0,1,-7814.42,-50.3228)">
        <g transform="matrix(2,0,0,19.3645,4290.26,50.3228)">
            <g transform="matrix(0.603745,0,0,0.0552182,1783.66,0.347875)">
                <path d="M0,268C-2.93,250.6 -17.82,237.3 -35.74,237.3L-35.74,175.8C-32.61,175.2 -30.22,172.399 -30.22,169.1C-30.22,165.7 -32.61,162.899 -35.74,162.399L-35.74,-6.3L259.419,-6.3L259.419,162.3C256.01,162.6 253.32,165.5 253.32,169.1C253.32,172.6 256.01,175.6 259.419,175.899L259.419,237.3C241.4,237.3 226.45,250.7 223.64,268.3L223.4,267.8L220.08,274.3L212.53,274.3L209.209,267.8L205.9,274.3L198.81,274.3L195.5,267.8L192.19,274.3L184.839,274.3L181.53,267.8L178.209,274.3L170.709,274.3L167.39,267.8L164.08,274.3L156.629,274.3L153.32,267.8L150,274.3L142.44,274.3L139.129,267.8L135.81,274.3L129.339,274.3L126.03,267.8L122.72,274.3L115.11,274.3L111.8,267.8L108.49,274.3L100.87,274.3L97.55,267.8L94.24,274.3L86.83,274.3L83.51,267.8L80.2,274.3L72.86,274.3L69.55,267.8L66.23,274.3L58.97,274.3L55.66,267.8L52.35,274.3L44.86,274.3L41.54,267.8L38.23,274.3L30.97,274.3L27.66,267.8L24.34,274.3L16.94,274.3L13.62,267.8L10.31,274.3L3.41,274.3L0.1,267.8L0,268ZM242.049,162.3C245.73,162.3 248.72,165.3 248.72,169.1C248.72,172.8 245.73,175.899 242.049,175.899C238.37,175.899 235.39,172.8 235.39,169.1C235.39,165.3 238.37,162.3 242.049,162.3M223.51,162.3C227.19,162.3 230.18,165.3 230.18,169.1C230.18,172.8 227.19,175.899 223.51,175.899C219.83,175.899 216.85,172.8 216.85,169.1C216.85,165.3 219.83,162.3 223.51,162.3M204.86,162.3C208.54,162.3 211.53,165.3 211.53,169.1C211.53,172.8 208.54,175.899 204.86,175.899C201.18,175.899 198.2,172.8 198.2,169.1C198.2,165.3 201.18,162.3 204.86,162.3M185.959,162.3C189.64,162.3 192.629,165.3 192.629,169.1C192.629,172.8 189.64,175.899 185.959,175.899C182.28,175.899 179.299,172.8 179.299,169.1C179.299,165.3 182.28,162.3 185.959,162.3M166.98,162.3C170.66,162.3 173.64,165.3 173.64,169.1C173.64,172.8 170.66,175.899 166.98,175.899C163.299,175.899 160.31,172.8 160.31,169.1C160.31,165.3 163.299,162.3 166.98,162.3M148.93,162.3C152.61,162.3 155.589,165.3 155.589,169.1C155.589,172.8 152.61,175.899 148.93,175.899C145.25,175.899 142.26,172.8 142.26,169.1C142.26,165.3 145.25,162.3 148.93,162.3M130.65,162.3C134.33,162.3 137.32,165.3 137.32,169.1C137.32,172.8 134.33,175.899 130.65,175.899C126.97,175.899 123.98,172.8 123.98,169.1C123.98,165.3 126.97,162.3 130.65,162.3M110.45,162.3C114.12,162.3 117.11,165.3 117.11,169.1C117.11,172.8 114.12,175.899 110.45,175.899C106.77,175.899 103.78,172.8 103.78,169.1C103.78,165.3 106.77,162.3 110.45,162.3M92.32,162.3C96,162.3 98.98,165.3 98.98,169.1C98.98,172.8 96,175.899 92.32,175.899C88.64,175.899 85.65,172.8 85.65,169.1C85.65,165.3 88.64,162.3 92.32,162.3M73.83,162.3C77.51,162.3 80.49,165.3 80.49,169.1C80.49,172.8 77.51,175.899 73.83,175.899C70.15,175.899 67.16,172.8 67.16,169.1C67.16,165.3 70.15,162.3 73.83,162.3M55.51,162.3C59.18,162.3 62.17,165.3 62.17,169.1C62.17,172.8 59.18,175.899 55.51,175.899C51.83,175.899 48.84,172.8 48.84,169.1C48.84,165.3 51.83,162.3 55.51,162.3M36.93,162.3C40.61,162.3 43.6,165.3 43.6,169.1C43.6,172.8 40.61,175.899 36.93,175.899C33.25,175.899 30.27,172.8 30.27,169.1C30.27,165.3 33.25,162.3 36.93,162.3M18.62,162.3C22.3,162.3 25.29,165.3 25.29,169.1C25.29,172.8 22.3,175.899 18.62,175.899C14.95,175.899 11.96,172.8 11.96,169.1C11.96,165.3 14.95,162.3 18.62,162.3M-0.63,162.3C3.05,162.3 6.03,165.3 6.03,169.1C6.03,172.8 3.05,175.899 -0.63,175.899C-4.31,175.899 -7.3,172.8 -7.3,169.1C-7.3,165.3 -4.31,162.3 -0.63,162.3M-19.18,162.3C-15.5,162.3 -12.51,165.3 -12.51,169.1C-12.51,172.8 -15.5,175.899 -19.18,175.899C-22.86,175.899 -25.84,172.8 -25.84,169.1C-25.84,165.3 -22.86,162.3 -19.18,162.3" style="fill:rgb(254,73,20);"/>
            </g>
        </g>
    </g>
</svg>
