<?xml version="1.0" encoding="UTF-8" standalone="no"?>
<!DOCTYPE svg PUBLIC "-//W3C//DTD SVG 1.1//EN" "http://www.w3.org/Graphics/SVG/1.1/DTD/svg11.dtd">
<svg width="100%" height="100%" viewBox="0 0 513 153" version="1.1" xmlns="http://www.w3.org/2000/svg" xmlns:xlink="http://www.w3.org/1999/xlink" xml:space="preserve" xmlns:serif="http://www.serif.com/" style="fill-rule:evenodd;clip-rule:evenodd;stroke-miterlimit:10;">
    <g transform="matrix(1,0,0,1,-7013.84,-78.8607)">
        <g transform="matrix(2,0,0,19.3645,4290.26,50.3228)">
            <g transform="matrix(0.53417,0,0,0.05517,1383.94,4.95774)">
                <path d="M0,0.439L3.583,0.439L3.583,19.597C-1.024,23.984 -7.678,26.177 -14.697,26.177C-30.126,26.177 -41.459,15.136 -41.459,0.22C-41.459,-14.697 -30.126,-25.738 -14.624,-25.738C-7.239,-25.738 -0.731,-23.398 3.802,-18.718L1.462,-16.232C-2.998,-20.62 -8.336,-22.301 -14.551,-22.301C-27.859,-22.301 -37.73,-12.649 -37.73,0.22C-37.73,13.016 -27.859,22.741 -14.551,22.741C-9.14,22.741 -4.168,21.424 0,18.061L0,0.439Z" style="fill:rgb(0,92,151);fill-rule:nonzero;"/>
            </g>
        </g>
        <g transform="matrix(2,0,0,19.3645,4290.26,50.3228)">
            <g transform="matrix(0.53417,0,0,0.05517,1404.4,4.6633)">
                <path d="M0,11.114C10.968,11.114 16.817,5.996 16.817,-2.779C16.817,-11.626 10.968,-16.671 0,-16.671L-14.624,-16.671L-14.624,11.114L0,11.114ZM17.183,31.149L4.972,14.039C3.363,14.259 1.755,14.405 0,14.405L-14.624,14.405L-14.624,31.149L-18.354,31.149L-18.354,-20.035L0,-20.035C12.869,-20.035 20.62,-13.601 20.62,-2.779C20.62,5.338 16.232,10.968 8.628,13.235L21.424,31.149L17.183,31.149Z" style="fill:rgb(0,92,151);fill-rule:nonzero;"/>
            </g>
        </g>
        <g transform="matrix(2,0,0,19.3645,4290.26,50.3228)">
            <g transform="matrix(0.53417,0,0,0.05517,1438.89,4.52611)">
                <path d="M0,16.087L-13.454,-13.454L-26.835,16.087L0,16.087ZM1.39,19.232L-28.297,19.232L-34.805,33.636L-38.827,33.636L-15.282,-17.549L-11.553,-17.549L11.992,33.636L7.97,33.636L1.39,19.232Z" style="fill:rgb(0,92,151);fill-rule:nonzero;"/>
            </g>
        </g>
        <g transform="matrix(2,0,0,19.3645,4290.26,50.3228)">
            <g transform="matrix(0.53417,0,0,0.05517,1472.52,6.38181)">
                <path d="M0,-51.185L0,0L-3.071,0L-37.949,-44.457L-37.949,0L-41.678,0L-41.678,-51.185L-38.534,-51.185L-3.729,-6.728L-3.729,-51.185L0,-51.185Z" style="fill:rgb(0,92,151);fill-rule:nonzero;"/>
            </g>
        </g>
        <g transform="matrix(2,0,0,19.3645,4290.26,50.3228)">
            <g transform="matrix(0.53417,0,0,0.05517,1603.83,7.42888)">
                <path d="M0,-77.284L-220.379,-91.607C-226.785,-91.607 -231.978,-86.414 -231.978,-80.009L-231.978,-16.815C-231.978,-10.41 -226.785,-5.218 -220.379,-5.218L-193.498,-5.218L-176.534,14.323L-176.463,-5.218L0,-5.218C6.405,-5.218 11.598,-10.41 11.598,-16.815L11.598,-65.685C11.598,-72.092 6.405,-77.284 0,-77.284" style="fill:rgb(252,72,17);fill-rule:nonzero;"/>
            </g>
        </g>
        <g transform="matrix(2,0,0,19.3645,4290.26,50.3228)">
            <g transform="matrix(0.53417,0,0,0.05517,1493.75,5.89893)">
                <path d="M0,-32.946L0,-19.094L24.259,-19.094L24.259,-9.36L0,-9.36L0,9.733L-12.129,9.733L-12.129,-42.679L27.479,-42.679L27.479,-32.946L0,-32.946Z" style="fill:white;fill-rule:nonzero;"/>
            </g>
        </g>
        <g transform="matrix(2,0,0,19.3645,4290.26,50.3228)">
            <g transform="matrix(0.53417,0,0,0.05517,1534.86,4.9901)">
                <path d="M0,0C0,-9.958 -7.038,-16.772 -16.397,-16.772C-25.757,-16.772 -32.795,-9.958 -32.795,0C-32.795,9.958 -25.757,16.771 -16.397,16.771C-7.038,16.771 0,9.958 0,0M-45.074,0C-45.074,-15.574 -32.945,-27.104 -16.397,-27.104C0.075,-27.104 12.279,-15.648 12.279,0C12.279,15.648 0.075,27.104 -16.397,27.104C-32.945,27.104 -45.074,15.574 -45.074,0" style="fill:white;fill-rule:nonzero;"/>
            </g>
        </g>
        <g transform="matrix(2,0,0,19.3645,4290.26,50.3228)">
            <g transform="matrix(0.53417,0,0,0.05517,1558.06,5.89057)">
                <path d="M0,-32.644L-9.883,-32.644L-9.883,-14.375L0,-14.375C7.413,-14.375 11.157,-17.819 11.157,-23.51C11.157,-29.275 7.413,-32.644 0,-32.644M11.381,9.884L1.273,-4.716L-9.883,-4.716L-9.883,9.884L-22.013,9.884L-22.013,-42.528L0.674,-42.528C14.675,-42.528 23.436,-35.265 23.436,-23.51C23.436,-15.648 19.467,-9.882 12.654,-6.962L24.409,9.884L11.381,9.884Z" style="fill:white;fill-rule:nonzero;"/>
            </g>
        </g>
        <g transform="matrix(2,0,0,19.3645,4290.26,50.3228)">
            <g transform="matrix(0.53417,0,0,0.05517,1598.02,4.9901)">
                <path d="M0,0C0,-9.958 -7.038,-16.772 -16.397,-16.772C-25.757,-16.772 -32.795,-9.958 -32.795,0C-32.795,9.958 -25.757,16.771 -16.397,16.771C-7.038,16.771 0,9.958 0,0M-45.075,0C-45.075,-15.574 -32.945,-27.104 -16.397,-27.104C0.075,-27.104 12.279,-15.648 12.279,0C12.279,15.648 0.075,27.104 -16.397,27.104C-32.945,27.104 -45.075,15.574 -45.075,0" style="fill:white;fill-rule:nonzero;"/>
            </g>
        </g>
        <g transform="matrix(2,0,0,19.3645,4290.26,50.3228)">
            <g transform="matrix(0.53417,0,0,0.05517,1604.59,7.79563)">
                <path d="M0,-86.375L-224.567,-102.047C-231.577,-102.047 -237.259,-96.365 -237.259,-89.355L-237.259,-21.352C-237.259,-14.343 -231.577,-8.66 -224.567,-8.66L-196.867,-8.66L-174.798,15.672L-174.798,-8.66L0,-8.66C7.009,-8.66 12.691,-14.343 12.691,-21.352L12.691,-73.684C12.691,-80.692 7.009,-86.375 0,-86.375Z" style="fill:none;fill-rule:nonzero;stroke:rgb(0,92,151);stroke-width:2.5px;"/>
            </g>
        </g>
    </g>
</svg>
